<?xml version="1.0" encoding="utf-8"?>
<!-- Generator: Adobe Illustrator 28.0.0, SVG Export Plug-In . SVG Version: 6.00 Build 0)  -->
<svg version="1.1" id="Capa_1" xmlns="http://www.w3.org/2000/svg" xmlns:xlink="http://www.w3.org/1999/xlink" x="0px" y="0px"
	 viewBox="0 0 757.35 468.62" style="enable-background:new 0 0 757.35 468.62;" xml:space="preserve">
<style type="text/css">
	.st0{fill:#FFFFFF;}
	.st1{fill:#93846F;}
</style>
<g>
	<g>
		<g>
			<g>
				<path class="st0" d="M221.67,295.04l9.09-22.74h10.57l-15.99,37.43h-7.55l-15.74-37.43h10.57L221.67,295.04z"/>
				<path class="st0" d="M273.55,309.73h-9.73v-29.19h-8.04v-8.24h25.82v8.24h-8.04V309.73z"/>
				<path class="st0" d="M309.75,280.54v6.26h10.97v8.24h-10.97v6.45h11.57v8.24h-21.3V272.3h21.3v8.24H309.75z"/>
				<path class="st0" d="M351.74,303.23l-2.58,6.5h-10.33l14.4-37.43h10.62l14.1,37.43h-10.38l-2.43-6.5H351.74z M358.55,283.87
					h-0.1l-4.02,11.92h8.09L358.55,283.87z"/>
				<path class="st0" d="M400,272.3h9.58l7.6,20.01l8.04-20.01h9.68l5.66,37.43h-9.73l-2.73-21.55H428l-8.99,21.55h-3.87
					l-8.59-21.55h-0.1l-3.13,21.55h-9.68L400,272.3z"/>
				<path class="st0" d="M469.3,280.54v6.26h10.67v8.24H469.3v14.7h-9.73V272.3h21.5v8.24H469.3z"/>
				<path class="st0" d="M511.11,309.73h-9.73V272.3h9.73V309.73z"/>
				<path class="st0" d="M547.25,309.73h-9.73v-29.19h-8.04v-8.24h25.82v8.24h-8.04V309.73z"/>
			</g>
		</g>
	</g>
	<g>
		<rect x="352.3" y="158.89" class="st1" width="113.8" height="4.04"/>
		<rect x="352.3" y="165.17" class="st1" width="113.8" height="4.04"/>
		<rect x="352.3" y="171.46" class="st1" width="113.8" height="4.04"/>
		<rect x="352.3" y="187.8" class="st1" width="113.8" height="4.04"/>
		<rect x="352.3" y="194.09" class="st1" width="113.8" height="4.04"/>
		<rect x="352.3" y="200.37" class="st1" width="113.8" height="4.04"/>
		<g>
			<g>
				<g>
					<path class="st0" d="M332.68,205l18.43-46.12h21.45l-32.42,75.92h-15.3l-31.92-75.92h21.45L332.68,205z"/>
					<path class="st0" d="M407.69,234.8h-19.74v-59.2h-16.31v-16.71H424v16.71h-16.31V234.8z"/>
				</g>
			</g>
		</g>
	</g>
</g>
</svg>
